<svg width="100" height="100" viewBox="0 0 100 100" fill="none" xmlns="http://www.w3.org/2000/svg">
<g clip-path="url(#clip0_186_352)">
<path d="M18.5093 60.5839C15.2006 60.5839 12.3201 59.9027 9.86774 58.5403C7.45433 57.1389 5.58588 55.251 4.2624 52.8765C2.97784 50.5021 2.33556 47.8162 2.33556 44.8189C2.33556 41.3155 3.03623 38.3377 4.43756 35.8853C5.87783 33.3941 7.74627 31.4867 10.0429 30.1632C12.3395 28.8397 14.7724 28.178 17.3415 28.178C19.3268 28.178 21.1952 28.5867 22.9469 29.4042C24.7375 30.2216 26.314 31.3505 27.6764 32.7907C29.0388 34.1921 30.1093 35.827 30.8878 37.6954C31.7052 39.5639 32.1139 41.5491 32.1139 43.6511C32.075 44.5853 31.7052 45.3444 31.0046 45.9283C30.3039 46.5121 29.4864 46.8041 28.5522 46.8041H6.24762L4.49595 40.9652H25.9247L24.6402 42.133V40.5565C24.5623 39.4276 24.1536 38.4155 23.414 37.5202C22.7133 36.6249 21.818 35.9243 20.7281 35.4182C19.6771 34.8733 18.5482 34.6008 17.3415 34.6008C16.1738 34.6008 15.0838 34.7565 14.0717 35.0679C13.0597 35.3793 12.1838 35.9048 11.4442 36.6444C10.7046 37.384 10.1208 38.3766 9.69257 39.6222C9.26439 40.8679 9.05029 42.4444 9.05029 44.3517C9.05029 46.4538 9.47848 48.2443 10.3349 49.7235C11.2301 51.1638 12.359 52.2732 13.7214 53.0517C15.1228 53.7913 16.6019 54.1611 18.159 54.1611C19.5992 54.1611 20.7476 54.0443 21.6039 53.8108C22.4603 53.5772 23.1415 53.3047 23.6475 52.9933C24.1925 52.643 24.6791 52.351 25.1073 52.1175C25.8079 51.7672 26.4697 51.592 27.0925 51.592C27.9489 51.592 28.6495 51.8839 29.1945 52.4678C29.7784 53.0517 30.0703 53.7329 30.0703 54.5114C30.0703 55.5624 29.5254 56.5161 28.4354 57.3725C27.4234 58.2289 26.0026 58.9879 24.173 59.6497C22.3435 60.2725 20.4556 60.5839 18.5093 60.5839ZM52.1322 28.178C54.351 28.178 56.2779 28.4116 57.9128 28.8787C59.5866 29.3458 60.8711 30.0075 61.7664 30.8639C62.7007 31.6813 63.1678 32.674 63.1678 33.8417C63.1678 34.6202 62.9342 35.3598 62.4671 36.0605C62 36.7223 61.3188 37.0531 60.4235 37.0531C59.8007 37.0531 59.2752 36.9753 58.847 36.8196C58.4577 36.6249 58.1074 36.3914 57.796 36.1189C57.4846 35.8464 57.1148 35.5934 56.6866 35.3598C56.2973 35.1263 55.694 34.9511 54.8765 34.8343C54.098 34.6786 53.5141 34.6008 53.1249 34.6008C51.1396 34.6008 49.4464 35.029 48.045 35.8853C46.6826 36.7417 45.6316 37.9095 44.892 39.3887C44.1524 40.8289 43.7826 42.5028 43.7826 44.4101C43.7826 46.2786 44.1524 47.9524 44.892 49.4316C45.6705 50.8719 46.7215 52.0202 48.045 52.8765C49.4074 53.7329 50.9645 54.1611 52.7161 54.1611C53.6893 54.1611 54.5262 54.1027 55.2269 53.9859C55.9275 53.8692 56.5114 53.694 56.9785 53.4604C57.5235 53.149 58.0101 52.8182 58.4383 52.4678C58.8664 52.1175 59.5087 51.9423 60.3651 51.9423C61.3772 51.9423 62.1557 52.2732 62.7007 52.9349C63.2456 53.5577 63.5181 54.3363 63.5181 55.2705C63.5181 56.2436 62.9731 57.1389 61.8832 57.9564C60.7933 58.7349 59.353 59.3772 57.5624 59.8832C55.8108 60.3503 53.9034 60.5839 51.8403 60.5839C48.7652 60.5839 46.0987 59.8832 43.841 58.4819C41.5833 57.0416 39.8316 55.0953 38.586 52.643C37.3793 50.1906 36.7759 47.4464 36.7759 44.4101C36.7759 41.2182 37.4182 38.4155 38.7028 36.0021C40.0263 33.5498 41.8363 31.6424 44.133 30.28C46.4685 28.8787 49.1349 28.178 52.1322 28.178ZM98.8745 44.4101C98.8745 47.6021 98.1543 50.4242 96.7141 52.8765C95.3127 55.29 93.4054 57.1779 90.992 58.5403C88.6175 59.9027 85.951 60.5839 82.9927 60.5839C80.0343 60.5839 77.3484 59.9027 74.935 58.5403C72.5605 57.1779 70.6531 55.29 69.2129 52.8765C67.8115 50.4242 67.1109 47.6021 67.1109 44.4101C67.1109 41.2182 67.8115 38.4155 69.2129 36.0021C70.6531 33.5498 72.5605 31.6424 74.935 30.28C77.3484 28.8787 80.0343 28.178 82.9927 28.178C85.951 28.178 88.6175 28.8787 90.992 30.28C93.4054 31.6424 95.3127 33.5498 96.7141 36.0021C98.1543 38.4155 98.8745 41.2182 98.8745 44.4101ZM91.8678 44.4101C91.8678 42.4249 91.4591 40.7122 90.6416 39.2719C89.8631 37.7927 88.7926 36.6444 87.4302 35.827C86.1067 35.0095 84.6275 34.6008 82.9927 34.6008C81.3578 34.6008 79.8591 35.0095 78.4967 35.827C77.1732 36.6444 76.1028 37.7927 75.2853 39.2719C74.5068 40.7122 74.1175 42.4249 74.1175 44.4101C74.1175 46.3564 74.5068 48.0692 75.2853 49.5484C76.1028 50.9886 77.1732 52.1175 78.4967 52.9349C79.8591 53.7524 81.3578 54.1611 82.9927 54.1611C84.6275 54.1611 86.1067 53.7524 87.4302 52.9349C88.7926 52.1175 89.8631 50.9886 90.6416 49.5484C91.4591 48.0692 91.8678 46.3564 91.8678 44.4101Z" fill="#CCFE3B"/>
</g>
<defs>
<clipPath id="clip0_186_352">
<rect width="100" height="100" fill="white"/>
</clipPath>
</defs>
</svg>
